<svg xmlns="http://www.w3.org/2000/svg" xmlns:xlink="http://www.w3.org/1999/xlink" version="1.1" width="1573.9658580639295" height="777.6876152605001"><desc>frame%20Set%20Time%0Aautoactivation%20on%0Afontfamily%20monospace%0Aactor%20User%0Arparticipant%20document%0Arparticipant%20%22app.js%22%20as%20app%0Aparticipant%20%22myDisplay%3AClockDisplay%22%20as%20cd%0Aparticipant%20%22seconds%3ANumberDisplay%22%20as%20sec%0Aparticipant%20%22minutes%3ANumberDisplay%22%20as%20min%0Aparticipant%20%22hours%3ANumberDisplay%22%20as%20hrs%0A%0AUser-%3Edocument%3Aenters%20new%20time%0A%0AUser-%3Edocument%3Aclicks%20Set%20button%0Adeactivate%20document%0Adocument-%3Eapp%3Aclick%20Event%20Listener%0Aapp-%3Ecd%3AsetTime(hours%2C%20minutes%2C%20seconds)%0A%0A%0Acd-%3Ehrs%3AsetValue(hours)%0Acd%3C--hrs%3Avoid%0A%0Acd-%3Emin%3AsetValue(minutes)%0Acd%3C--min%3Avoid%0A%0A%0Acd-%3Esec%3AsetValue(seconds)%0Acd%3C--sec%3Avoid%0A%0A%0Acd%3C-cd%3AupdateDisplay()%0A%0Aapp%3C--cd%3Avoid%0A</desc><defs/><g><g/><g/><g/><g/><g/><g/><g/><g/><g/><g/><g/><g/><g/><g/><g/><g/><g/><g/><g/><g/><g/><g/><g/><g/><g/><g/><g/><g/><g/><g/><g/><g/><g/><g/><g/><g/><g/><g/><g/><g/><g/><g/><g/><g/><g/><g/><g/><g/><g/><g/><g><rect fill="white" stroke="none" x="0" y="0" width="1573" height="777"/></g><g/><g><path fill="none" stroke="black" paint-order="fill stroke markers" d=" M 50.42419670539063 135.7141255705 L 50.42419670539063 743.3836883305001" stroke-miterlimit="10" stroke-width="1.3612669416666667" stroke-dasharray="12.565541,5.445067766666667"/><path fill="none" stroke="black" paint-order="fill stroke markers" d=" M 239.17463357954426 135.7141255705 L 239.17463357954426 743.3836883305001" stroke-miterlimit="10" stroke-width="1.3612669416666667" stroke-dasharray="12.565541,5.445067766666667"/><path fill="none" stroke="black" paint-order="fill stroke markers" d=" M 468.44067841678384 135.7141255705 L 468.44067841678384 743.3836883305001" stroke-miterlimit="10" stroke-width="1.3612669416666667" stroke-dasharray="12.565541,5.445067766666667"/><path fill="none" stroke="black" paint-order="fill stroke markers" d=" M 786.2607402563672 135.7141255705 L 786.2607402563672 743.3836883305001" stroke-miterlimit="10" stroke-width="1.3612669416666667" stroke-dasharray="12.565541,5.445067766666667"/><path fill="none" stroke="black" paint-order="fill stroke markers" d=" M 1011.3362348028164 135.7141255705 L 1011.3362348028164 743.3836883305001" stroke-miterlimit="10" stroke-width="1.3612669416666667" stroke-dasharray="12.565541,5.445067766666667"/><path fill="none" stroke="black" paint-order="fill stroke markers" d=" M 1232.381661905418 135.7141255705 L 1232.381661905418 743.3836883305001" stroke-miterlimit="10" stroke-width="1.3612669416666667" stroke-dasharray="12.565541,5.445067766666667"/><path fill="none" stroke="black" paint-order="fill stroke markers" d=" M 1445.3669541203242 135.7141255705 L 1445.3669541203242 743.3836883305001" stroke-miterlimit="10" stroke-width="1.3612669416666667" stroke-dasharray="12.565541,5.445067766666667"/></g><g><g><path fill="white" stroke="black" paint-order="fill stroke markers" d=" M 59.735262586390625 67.87276971149998 A 9.311065881 9.311065881 0 1 1 59.735257930858076 67.86345864717082" stroke-miterlimit="10" stroke-width="2.7769845610000004" stroke-dasharray=""/><path fill="none" stroke="black" paint-order="fill stroke markers" d=" M 50.42419670539063 77.18383559249999 L 50.42419670539063 97.11278361849999 M 38.66285032939063 84.37132504449998 L 62.18554308139063 84.37132504449998 M 50.42419670539063 97.11278361849999 L 38.66285032939063 115.73491538049998 M 50.42419670539063 97.11278361849999 L 62.18554308139063 115.73491538049998" stroke-miterlimit="10" stroke-width="2.7769845610000004"/></g><g><g/><text fill="black" stroke="none" font-family="monospace" font-size="11pt" font-style="normal" font-weight="normal" text-decoration="normal" x="34.30392693" y="130.81356458049999" text-anchor="start" dominant-baseline="alphabetic" xml:space="preserve">User</text></g><path fill="none" stroke="none"/><g><path fill="white" stroke="black" paint-order="fill stroke markers" d=" M 189.210398448263 107.56731373049999 L 189.210398448263 107.56731373049999 A 14.70168297 14.70168297 0 0 1 203.912081418263 92.86563076049998 L 274.4371857408255 92.86563076049998 L 274.4371857408255 92.86563076049998 A 14.70168297 14.70168297 0 0 1 289.1388687108255 107.56731373049999 L 289.1388687108255 121.01244260049998 L 289.1388687108255 121.01244260049998 A 14.70168297 14.70168297 0 0 1 274.4371857408255 135.7141255705 L 203.912081418263 135.7141255705 L 203.912081418263 135.7141255705 A 14.70168297 14.70168297 0 0 1 189.210398448263 121.01244260049998 Z" stroke-miterlimit="10" stroke-width="2.7769845610000004" stroke-dasharray=""/></g><g><g/><text fill="black" stroke="none" font-family="monospace" font-size="11pt" font-style="normal" font-weight="normal" text-decoration="normal" x="206.934094028763" y="119.3789222705" text-anchor="start" dominant-baseline="alphabetic" xml:space="preserve">document</text></g><path fill="none" stroke="none"/><g><path fill="white" stroke="black" paint-order="fill stroke markers" d=" M 426.5365781731979 108.10763199350001 L 426.5365781731979 108.10763199350001 A 14.70168297 14.70168297 0 0 1 441.23826114319786 93.4059490235 L 495.6430956903698 93.4059490235 L 495.6430956903698 93.4059490235 A 14.70168297 14.70168297 0 0 1 510.3447786603698 108.10763199350001 L 510.3447786603698 121.01244260049998 L 510.3447786603698 121.01244260049998 A 14.70168297 14.70168297 0 0 1 495.6430956903698 135.7141255705 L 441.23826114319786 135.7141255705 L 441.23826114319786 135.7141255705 A 14.70168297 14.70168297 0 0 1 426.5365781731979 121.01244260049998 Z" stroke-miterlimit="10" stroke-width="2.7769845610000004" stroke-dasharray=""/></g><g><text fill="black" stroke="none" font-family="monospace" font-size="11pt" font-style="normal" font-weight="normal" text-decoration="normal" x="444.2602737536979" y="119.75588850049999" text-anchor="start" dominant-baseline="alphabetic" xml:space="preserve">app.js</text></g><path fill="none" stroke="none"/><g><path fill="white" stroke="black" paint-order="fill stroke markers" d=" M 679.8755609112187 93.4059490235 L 892.6459196015156 93.4059490235 L 892.6459196015156 135.7141255705 L 679.8755609112187 135.7141255705 L 679.8755609112187 93.4059490235 Z" stroke-miterlimit="10" stroke-width="2.613632528" stroke-dasharray=""/></g><g><text fill="black" stroke="none" font-family="monospace" font-size="11pt" font-style="normal" font-weight="normal" text-decoration="normal" x="697.5992564917187" y="119.75588850049999" text-anchor="start" dominant-baseline="alphabetic" xml:space="preserve">myDisplay:ClockDisplay</text></g><path fill="none" stroke="none"/><g><path fill="white" stroke="black" paint-order="fill stroke markers" d=" M 908.9811229015156 93.4059490235 L 1113.6913467041172 93.4059490235 L 1113.6913467041172 135.7141255705 L 908.9811229015156 135.7141255705 L 908.9811229015156 93.4059490235 Z" stroke-miterlimit="10" stroke-width="2.613632528" stroke-dasharray=""/></g><g><text fill="black" stroke="none" font-family="monospace" font-size="11pt" font-style="normal" font-weight="normal" text-decoration="normal" x="926.7048184820156" y="119.75588850049999" text-anchor="start" dominant-baseline="alphabetic" xml:space="preserve">seconds:NumberDisplay</text></g><path fill="none" stroke="none"/><g><path fill="white" stroke="black" paint-order="fill stroke markers" d=" M 1130.0265500041173 93.4059490235 L 1334.736773806719 93.4059490235 L 1334.736773806719 135.7141255705 L 1130.0265500041173 135.7141255705 L 1130.0265500041173 93.4059490235 Z" stroke-miterlimit="10" stroke-width="2.613632528" stroke-dasharray=""/></g><g><text fill="black" stroke="none" font-family="monospace" font-size="11pt" font-style="normal" font-weight="normal" text-decoration="normal" x="1147.7502455846172" y="119.75588850049999" text-anchor="start" dominant-baseline="alphabetic" xml:space="preserve">minutes:NumberDisplay</text></g><path fill="none" stroke="none"/><g><path fill="white" stroke="black" paint-order="fill stroke markers" d=" M 1351.0719771067188 93.4059490235 L 1539.6619311339298 93.4059490235 L 1539.6619311339298 135.7141255705 L 1351.0719771067188 135.7141255705 L 1351.0719771067188 93.4059490235 Z" stroke-miterlimit="10" stroke-width="2.613632528" stroke-dasharray=""/></g><g><text fill="black" stroke="none" font-family="monospace" font-size="11pt" font-style="normal" font-weight="normal" text-decoration="normal" x="1368.7956726872187" y="119.75588850049999" text-anchor="start" dominant-baseline="alphabetic" xml:space="preserve">hours:NumberDisplay</text></g></g><g><path fill="white" stroke="black" paint-order="fill stroke markers" d=" M 231.00703192954427 187.98677613049998 L 247.34223522954426 187.98677613049998 L 247.34223522954426 735.2160866805001 L 231.00703192954427 735.2160866805001 Z" stroke-miterlimit="10" stroke-width="1.3612669416666667" stroke-dasharray=""/><path fill="white" stroke="black" paint-order="fill stroke markers" d=" M 239.17463357954426 232.09182504049997 L 255.50983687954425 232.09182504049997 L 255.50983687954425 232.09182504049997 L 239.17463357954426 232.09182504049997 Z" stroke-miterlimit="10" stroke-width="1.3612669416666667"/><path fill="white" stroke="black" paint-order="fill stroke markers" d=" M 460.27307676678384 276.1968739505 L 476.60828006678383 276.1968739505 L 476.60828006678383 735.2160866805001 L 460.27307676678384 735.2160866805001 Z" stroke-miterlimit="10" stroke-width="1.3612669416666667"/><path fill="white" stroke="black" paint-order="fill stroke markers" d=" M 778.0931386063671 320.3019228605 L 794.4283419063672 320.3019228605 L 794.4283419063672 735.2160866805001 L 778.0931386063671 735.2160866805001 Z" stroke-miterlimit="10" stroke-width="1.3612669416666667"/><path fill="white" stroke="black" paint-order="fill stroke markers" d=" M 1437.1993524703241 364.4069717705 L 1453.5345557703242 364.4069717705 L 1453.5345557703242 408.5120206805 L 1437.1993524703241 408.5120206805 Z" stroke-miterlimit="10" stroke-width="1.3612669416666667"/><path fill="white" stroke="black" paint-order="fill stroke markers" d=" M 1224.214060255418 452.61706959049997 L 1240.549263555418 452.61706959049997 L 1240.549263555418 496.72211850049996 L 1224.214060255418 496.72211850049996 Z" stroke-miterlimit="10" stroke-width="1.3612669416666667"/><path fill="white" stroke="black" paint-order="fill stroke markers" d=" M 1003.1686331528164 540.8271674105 L 1019.5038364528165 540.8271674105 L 1019.5038364528165 584.9322163205001 L 1003.1686331528164 584.9322163205001 Z" stroke-miterlimit="10" stroke-width="1.3612669416666667"/><path fill="white" stroke="black" paint-order="fill stroke markers" d=" M 786.2607402563672 650.2730295205 L 802.5959435563673 650.2730295205 L 802.5959435563673 694.3780784305001 L 786.2607402563672 694.3780784305001 Z" stroke-miterlimit="10" stroke-width="1.3612669416666667"/><g><g/><g/><path fill="none" stroke="black" paint-order="fill stroke markers" d=" M 8.16760165 8.16760165 L 1565.7982564139295 8.16760165 L 1565.7982564139295 769.5200136105002 L 8.16760165 769.5200136105002 L 8.16760165 8.16760165 Z" stroke-miterlimit="10" stroke-width="1.3612669416666667"/><path fill="white" stroke="black" paint-order="fill stroke markers" d=" M 8.16760165 8.16760165 L 8.16760165 31.036886269999997 L 120.12934430957031 31.036886269999997 L 131.5639866195703 19.60224396 L 131.5639866195703 8.16760165 Z" stroke-miterlimit="10" stroke-width="1.3612669416666667"/><text fill="black" stroke="none" font-family="sans-serif" font-size="11pt" font-style="normal" font-weight="bold" text-decoration="normal" x="24.502804949999998" y="23.686044784999996" text-anchor="start" dominant-baseline="alphabetic" xml:space="preserve">sd</text><text fill="black" stroke="none" font-family="sans-serif" font-size="11pt" font-style="normal" font-weight="normal" text-decoration="normal" x="45.68391151738281" y="23.686044784999996" text-anchor="start" dominant-baseline="alphabetic" xml:space="preserve">Set Time</text></g><g><rect fill="white" stroke="none" x="78.0028052797526" y="168.38453217049997" width="125.42561807542968" height="19.602243960000003"/><text fill="black" stroke="none" font-family="monospace" font-size="11pt" font-style="normal" font-weight="normal" text-decoration="normal" x="80.2646026597526" y="181.95531645049996" text-anchor="start" dominant-baseline="alphabetic" xml:space="preserve">enters new time</text></g><g><path fill="none" stroke="black" paint-order="fill stroke markers" d=" M 50.42419670539063 187.98677613049998 L 217.55771454587762 187.98677613049998" stroke-miterlimit="10" stroke-width="1.3612669416666667"/><g transform="translate(231.00703192954427,187.98677613049998) translate(-231.00703192954427,-187.98677613049998)"><path fill="black" stroke="none" paint-order="stroke fill markers" d=" M 217.3943625128776 181.18044142216664 L 231.00703192954427 187.98677613049998 L 217.3943625128776 194.79311083883331 Z"/></g></g><g><rect fill="white" stroke="none" x="74.0264712170573" y="212.48958108049996" width="141.54588785082032" height="19.602243960000003"/><text fill="black" stroke="none" font-family="monospace" font-size="11pt" font-style="normal" font-weight="normal" text-decoration="normal" x="76.28826859705731" y="226.06036536049996" text-anchor="start" dominant-baseline="alphabetic" xml:space="preserve">clicks Set button</text></g><g><path fill="none" stroke="black" paint-order="fill stroke markers" d=" M 50.42419670539063 232.09182504049997 L 225.7253161958776 232.09182504049997" stroke-miterlimit="10" stroke-width="1.3612669416666667"/><g transform="translate(239.17463357954426,232.09182504049997) translate(-239.17463357954426,-232.09182504049997)"><path fill="black" stroke="none" paint-order="stroke fill markers" d=" M 225.5619641628776 225.28549033216663 L 239.17463357954426 232.09182504049997 L 225.5619641628776 238.8981597488333 Z"/></g></g><g><rect fill="white" stroke="none" x="270.9445097412109" y="256.5946299905" width="165.72629251390626" height="19.602243960000003"/><text fill="black" stroke="none" font-family="monospace" font-size="11pt" font-style="normal" font-weight="normal" text-decoration="normal" x="273.2063071212109" y="270.1654142705" text-anchor="start" dominant-baseline="alphabetic" xml:space="preserve">click Event Listener</text></g><g><path fill="none" stroke="black" paint-order="fill stroke markers" d=" M 247.34223522954426 276.1968739505 L 446.8237593831172 276.1968739505" stroke-miterlimit="10" stroke-width="1.3612669416666667"/><g transform="translate(460.27307676678384,276.1968739505) translate(-460.27307676678384,-276.1968739505)"><path fill="black" stroke="none" paint-order="stroke fill markers" d=" M 446.66040735011717 269.39053924216665 L 460.27307676678384 276.1968739505 L 446.66040735011717 283.00320865883333 Z"/></g></g><g><rect fill="white" stroke="none" x="496.1267537534505" y="300.6996789005" width="262.44791116625" height="19.602243960000003"/><text fill="black" stroke="none" font-family="monospace" font-size="11pt" font-style="normal" font-weight="normal" text-decoration="normal" x="498.3885511334505" y="314.2704631805" text-anchor="start" dominant-baseline="alphabetic" xml:space="preserve">setTime(hours, minutes, seconds)</text></g><g><path fill="none" stroke="black" paint-order="fill stroke markers" d=" M 476.60828006678383 320.3019228605 L 764.6438212227005 320.3019228605" stroke-miterlimit="10" stroke-width="1.3612669416666667"/><g transform="translate(778.0931386063671,320.3019228605) translate(-778.0931386063671,-320.3019228605)"><path fill="black" stroke="none" paint-order="stroke fill markers" d=" M 764.4804691897004 313.49558815216665 L 778.0931386063671 320.3019228605 L 764.4804691897004 327.1082575688333 Z"/></g></g><g><rect fill="white" stroke="none" x="1053.101038150631" y="344.8047278105" width="125.42561807542968" height="19.602243960000003"/><text fill="black" stroke="none" font-family="monospace" font-size="11pt" font-style="normal" font-weight="normal" text-decoration="normal" x="1055.362835530631" y="358.3755120905" text-anchor="start" dominant-baseline="alphabetic" xml:space="preserve">setValue(hours)</text></g><g><path fill="none" stroke="black" paint-order="fill stroke markers" d=" M 794.4283419063672 364.4069717705 L 1423.7500350866574 364.4069717705" stroke-miterlimit="10" stroke-width="1.3612669416666667"/><g transform="translate(1437.1993524703241,364.4069717705) translate(-1437.1993524703241,-364.4069717705)"><path fill="black" stroke="none" paint-order="stroke fill markers" d=" M 1423.5866830536575 357.60063706216664 L 1437.1993524703241 364.4069717705 L 1423.5866830536575 371.2133064788333 Z"/></g></g><g><rect fill="white" stroke="none" x="1097.4317800329552" y="388.90977672049996" width="36.76413431078125" height="19.602243960000003"/><text fill="black" stroke="none" font-family="monospace" font-size="11pt" font-style="normal" font-weight="normal" text-decoration="normal" x="1099.6935774129552" y="402.48056100049996" text-anchor="start" dominant-baseline="alphabetic" xml:space="preserve">void</text></g><g><path fill="none" stroke="black" paint-order="fill stroke markers" d=" M 1437.1993524703241 408.5120206805 L 807.8776592900339 408.5120206805" stroke-miterlimit="10" stroke-width="1.3612669416666667" stroke-dasharray="6.53408132"/><g transform="translate(794.4283419063672,408.5120206805) translate(-794.4283419063672,-408.5120206805)"><path fill="black" stroke="none" paint-order="stroke fill markers" d=" M 808.0410113230339 401.70568597216663 L 794.4283419063672 408.5120206805 L 808.0410113230339 415.3183553888333 Z"/></g></g><g><rect fill="white" stroke="none" x="938.5482571554825" y="433.0148256305" width="141.54588785082032" height="19.602243960000003"/><text fill="black" stroke="none" font-family="monospace" font-size="11pt" font-style="normal" font-weight="normal" text-decoration="normal" x="940.8100545354824" y="446.5856099105" text-anchor="start" dominant-baseline="alphabetic" xml:space="preserve">setValue(minutes)</text></g><g><path fill="none" stroke="black" paint-order="fill stroke markers" d=" M 794.4283419063672 452.61706959049997 L 1210.7647428717512 452.61706959049997" stroke-miterlimit="10" stroke-width="1.3612669416666667"/><g transform="translate(1224.214060255418,452.61706959049997) translate(-1224.214060255418,-452.61706959049997)"><path fill="black" stroke="none" paint-order="stroke fill markers" d=" M 1210.6013908387513 445.8107348821666 L 1224.214060255418 452.61706959049997 L 1210.6013908387513 459.4234042988333 Z"/></g></g><g><rect fill="white" stroke="none" x="990.939133925502" y="477.11987454049995" width="36.76413431078125" height="19.602243960000003"/><text fill="black" stroke="none" font-family="monospace" font-size="11pt" font-style="normal" font-weight="normal" text-decoration="normal" x="993.200931305502" y="490.69065882049995" text-anchor="start" dominant-baseline="alphabetic" xml:space="preserve">void</text></g><g><path fill="none" stroke="black" paint-order="fill stroke markers" d=" M 1224.214060255418 496.72211850049996 L 807.8776592900339 496.72211850049996" stroke-miterlimit="10" stroke-width="1.3612669416666667" stroke-dasharray="6.53408132"/><g transform="translate(794.4283419063672,496.72211850049996) translate(-794.4283419063672,-496.72211850049996)"><path fill="black" stroke="none" paint-order="stroke fill markers" d=" M 808.0410113230339 489.9157837921666 L 794.4283419063672 496.72211850049996 L 808.0410113230339 503.5284532088333 Z"/></g></g><g><rect fill="white" stroke="none" x="828.0255436041816" y="521.2249234505" width="141.54588785082032" height="19.602243960000003"/><text fill="black" stroke="none" font-family="monospace" font-size="11pt" font-style="normal" font-weight="normal" text-decoration="normal" x="830.2873409841816" y="534.7957077305" text-anchor="start" dominant-baseline="alphabetic" xml:space="preserve">setValue(seconds)</text></g><g><path fill="none" stroke="black" paint-order="fill stroke markers" d=" M 794.4283419063672 540.8271674105 L 989.7193157691497 540.8271674105" stroke-miterlimit="10" stroke-width="1.3612669416666667"/><g transform="translate(1003.1686331528164,540.8271674105) translate(-1003.1686331528164,-540.8271674105)"><path fill="black" stroke="none" paint-order="stroke fill markers" d=" M 989.5559637361497 534.0208327021667 L 1003.1686331528164 540.8271674105 L 989.5559637361497 547.6335021188333 Z"/></g></g><g><rect fill="white" stroke="none" x="880.4164203742012" y="565.3299723605" width="36.76413431078125" height="19.602243960000003"/><text fill="black" stroke="none" font-family="monospace" font-size="11pt" font-style="normal" font-weight="normal" text-decoration="normal" x="882.6782177542011" y="578.9007566405" text-anchor="start" dominant-baseline="alphabetic" xml:space="preserve">void</text></g><g><path fill="none" stroke="black" paint-order="fill stroke markers" d=" M 1003.1686331528164 584.9322163205001 L 807.8776592900339 584.9322163205001" stroke-miterlimit="10" stroke-width="1.3612669416666667" stroke-dasharray="6.53408132"/><g transform="translate(794.4283419063672,584.9322163205001) translate(-794.4283419063672,-584.9322163205001)"><path fill="black" stroke="none" paint-order="stroke fill markers" d=" M 808.0410113230339 578.1258816121667 L 794.4283419063672 584.9322163205001 L 808.0410113230339 591.7385510288334 Z"/></g></g><g><rect fill="white" stroke="none" x="822.1144172430339" y="609.4350212705" width="125.42561807542968" height="19.602243960000003"/><text fill="black" stroke="none" font-family="monospace" font-size="11pt" font-style="normal" font-weight="normal" text-decoration="normal" x="824.3762146230339" y="623.0058055505" text-anchor="start" dominant-baseline="alphabetic" xml:space="preserve">updateDisplay()</text></g><g><path fill="none" stroke="black" paint-order="fill stroke markers" d=" M 794.4283419063672 629.0372652305 L 867.9367567563671 629.0372652305 L 867.9367567563671 650.2730295205 L 816.0452609400338 650.2730295205" stroke-miterlimit="10" stroke-width="1.3612669416666667"/><g transform="translate(802.5959435563672,650.2730295205) translate(-802.5959435563672,-650.2730295205)"><path fill="black" stroke="none" paint-order="stroke fill markers" d=" M 816.2086129730338 643.4666948121667 L 802.5959435563672 650.2730295205 L 816.2086129730338 657.0793642288334 Z"/></g></g><g><rect fill="white" stroke="none" x="613.052443006185" y="674.7758344705001" width="36.76413431078125" height="19.602243960000003"/><text fill="black" stroke="none" font-family="monospace" font-size="11pt" font-style="normal" font-weight="normal" text-decoration="normal" x="615.3142403861849" y="688.3466187505" text-anchor="start" dominant-baseline="alphabetic" xml:space="preserve">void</text></g><g><path fill="none" stroke="black" paint-order="fill stroke markers" d=" M 786.2607402563672 694.3780784305001 L 490.0575974504505 694.3780784305001" stroke-miterlimit="10" stroke-width="1.3612669416666667" stroke-dasharray="6.53408132"/><g transform="translate(476.60828006678383,694.3780784305001) translate(-476.60828006678383,-694.3780784305001)"><path fill="black" stroke="none" paint-order="stroke fill markers" d=" M 490.2209494834505 687.5717437221667 L 476.60828006678383 694.3780784305001 L 490.2209494834505 701.1844131388334 Z"/></g></g></g><g/><g/></g></svg>