<svg xmlns="http://www.w3.org/2000/svg" xmlns:xlink="http://www.w3.org/1999/xlink" version="1.1" width="1380.3621379122992" height="1047.2184697105004"><desc>frame%20Time%20Tick%0Aautoactivation%20%0Afontfamily%20monospace%0Aactor%20User%0Arparticipant%20document%0Arparticipant%20%22app.js%22%20as%20app%0Aparticipant%20%22myDisplay%3AClockDisplay%22%20as%20cd%0Aparticipant%20%22seconds%3ANumberDisplay%22%20as%20sec%0Aparticipant%20%22minutes%3ANumberDisplay%22%20as%20min%0Aparticipant%20%22hours%3ANumberDisplay%22%20as%20hrs%0A%0AUser-%3Edocument%3Aclicks%20button%0Adocument-%3Eapp%3Aclick%20Event%20Listener%0Aapp-%3Ecd%3AtimeTick()%0A%0Acd-%3Esec%3Aincrement()%0Acd%3C--sec%3Avoid%0A%0Acd-%3Esec%3AgetValue()%0Acd%3C--sec%3Avalue%0A%0Aopt%20value%20of%20seconds%20%3D%3D%3D%200%0Acd-%3Emin%3Aincrement()%0Acd%3C--min%3Avoid%0A%0Acd-%3Emin%3AgetValue()%0Acd%3C--min%3Avalue%0A%0Aopt%20value%20of%20minutes%20%3D%3D%3D%200%0Acd-%3Ehrs%3Aincrement()%0Acd%3C--hrs%3Avoid%0Aend%0Aend%0A%0Acd%3C-cd%3AupdateDisplay()%0A%0Aapp%3C--cd%3Avoid%0Adeactivate%20cd</desc><defs/><g><g/><g/><g/><g/><g/><g/><g/><g/><g/><g/><g/><g/><g/><g/><g/><g/><g/><g/><g/><g/><g/><g/><g/><g/><g/><g/><g/><g/><g/><g/><g/><g/><g/><g/><g/><g/><g/><g/><g/><g/><g/><g/><g/><g/><g/><g/><g><rect fill="white" stroke="none" x="0" y="0" width="1380" height="1047"/></g><g/><g><path fill="none" stroke="black" paint-order="fill stroke markers" d=" M 50.42419670539063 135.7141255705 L 50.42419670539063 1012.9145427805004" stroke-miterlimit="10" stroke-width="1.3612669416666667" stroke-dasharray="12.565541,5.445067766666667"/><path fill="none" stroke="black" paint-order="fill stroke markers" d=" M 206.934094028763 135.7141255705 L 206.934094028763 1012.9145427805004" stroke-miterlimit="10" stroke-width="1.3612669416666667" stroke-dasharray="12.565541,5.445067766666667"/><path fill="none" stroke="black" paint-order="fill stroke markers" d=" M 428.03253721600254 135.7141255705 L 428.03253721600254 1012.9145427805004" stroke-miterlimit="10" stroke-width="1.3612669416666667" stroke-dasharray="12.565541,5.445067766666667"/><path fill="none" stroke="black" paint-order="fill stroke markers" d=" M 592.657020104737 135.7141255705 L 592.657020104737 1012.9145427805004" stroke-miterlimit="10" stroke-width="1.3612669416666667" stroke-dasharray="12.565541,5.445067766666667"/><path fill="none" stroke="black" paint-order="fill stroke markers" d=" M 817.7325146511862 135.7141255705 L 817.7325146511862 1012.9145427805004" stroke-miterlimit="10" stroke-width="1.3612669416666667" stroke-dasharray="12.565541,5.445067766666667"/><path fill="none" stroke="black" paint-order="fill stroke markers" d=" M 1038.7779417537877 135.7141255705 L 1038.7779417537877 1012.9145427805004" stroke-miterlimit="10" stroke-width="1.3612669416666667" stroke-dasharray="12.565541,5.445067766666667"/><path fill="none" stroke="black" paint-order="fill stroke markers" d=" M 1251.7632339686938 135.7141255705 L 1251.7632339686938 1012.9145427805004" stroke-miterlimit="10" stroke-width="1.3612669416666667" stroke-dasharray="12.565541,5.445067766666667"/></g><g><g><path fill="white" stroke="black" paint-order="fill stroke markers" d=" M 59.735262586390625 67.87276971149998 A 9.311065881 9.311065881 0 1 1 59.735257930858076 67.86345864717082" stroke-miterlimit="10" stroke-width="2.7769845610000004" stroke-dasharray=""/><path fill="none" stroke="black" paint-order="fill stroke markers" d=" M 50.42419670539063 77.18383559249999 L 50.42419670539063 97.11278361849999 M 38.66285032939063 84.37132504449998 L 62.18554308139063 84.37132504449998 M 50.42419670539063 97.11278361849999 L 38.66285032939063 115.73491538049998 M 50.42419670539063 97.11278361849999 L 62.18554308139063 115.73491538049998" stroke-miterlimit="10" stroke-width="2.7769845610000004"/></g><g><g/><text fill="black" stroke="none" font-family="monospace" font-size="11pt" font-style="normal" font-weight="normal" text-decoration="normal" x="34.30392693" y="130.81356458049999" text-anchor="start" dominant-baseline="alphabetic" xml:space="preserve">User</text></g><path fill="none" stroke="none"/><g><path fill="white" stroke="black" paint-order="fill stroke markers" d=" M 156.96985889748174 107.56731373049999 L 156.96985889748174 107.56731373049999 A 14.70168297 14.70168297 0 0 1 171.67154186748175 92.86563076049998 L 242.19664619004422 92.86563076049998 L 242.19664619004422 92.86563076049998 A 14.70168297 14.70168297 0 0 1 256.8983291600442 107.56731373049999 L 256.8983291600442 121.01244260049998 L 256.8983291600442 121.01244260049998 A 14.70168297 14.70168297 0 0 1 242.19664619004422 135.7141255705 L 171.67154186748175 135.7141255705 L 171.67154186748175 135.7141255705 A 14.70168297 14.70168297 0 0 1 156.96985889748174 121.01244260049998 Z" stroke-miterlimit="10" stroke-width="2.7769845610000004" stroke-dasharray=""/></g><g><g/><text fill="black" stroke="none" font-family="monospace" font-size="11pt" font-style="normal" font-weight="normal" text-decoration="normal" x="174.69355447798176" y="119.3789222705" text-anchor="start" dominant-baseline="alphabetic" xml:space="preserve">document</text></g><path fill="none" stroke="none"/><g><path fill="white" stroke="black" paint-order="fill stroke markers" d=" M 386.1284369724166 108.10763199350001 L 386.1284369724166 108.10763199350001 A 14.70168297 14.70168297 0 0 1 400.83011994241656 93.4059490235 L 455.2349544895885 93.4059490235 L 455.2349544895885 93.4059490235 A 14.70168297 14.70168297 0 0 1 469.9366374595885 108.10763199350001 L 469.9366374595885 121.01244260049998 L 469.9366374595885 121.01244260049998 A 14.70168297 14.70168297 0 0 1 455.2349544895885 135.7141255705 L 400.83011994241656 135.7141255705 L 400.83011994241656 135.7141255705 A 14.70168297 14.70168297 0 0 1 386.1284369724166 121.01244260049998 Z" stroke-miterlimit="10" stroke-width="2.7769845610000004" stroke-dasharray=""/></g><g><text fill="black" stroke="none" font-family="monospace" font-size="11pt" font-style="normal" font-weight="normal" text-decoration="normal" x="403.8521325529166" y="119.75588850049999" text-anchor="start" dominant-baseline="alphabetic" xml:space="preserve">app.js</text></g><path fill="none" stroke="none"/><g><path fill="white" stroke="black" paint-order="fill stroke markers" d=" M 486.2718407595885 93.4059490235 L 699.0421994498854 93.4059490235 L 699.0421994498854 135.7141255705 L 486.2718407595885 135.7141255705 L 486.2718407595885 93.4059490235 Z" stroke-miterlimit="10" stroke-width="2.613632528" stroke-dasharray=""/></g><g><text fill="black" stroke="none" font-family="monospace" font-size="11pt" font-style="normal" font-weight="normal" text-decoration="normal" x="503.9955363400885" y="119.75588850049999" text-anchor="start" dominant-baseline="alphabetic" xml:space="preserve">myDisplay:ClockDisplay</text></g><path fill="none" stroke="none"/><g><path fill="white" stroke="black" paint-order="fill stroke markers" d=" M 715.3774027498854 93.4059490235 L 920.087626552487 93.4059490235 L 920.087626552487 135.7141255705 L 715.3774027498854 135.7141255705 L 715.3774027498854 93.4059490235 Z" stroke-miterlimit="10" stroke-width="2.613632528" stroke-dasharray=""/></g><g><text fill="black" stroke="none" font-family="monospace" font-size="11pt" font-style="normal" font-weight="normal" text-decoration="normal" x="733.1010983303854" y="119.75588850049999" text-anchor="start" dominant-baseline="alphabetic" xml:space="preserve">seconds:NumberDisplay</text></g><path fill="none" stroke="none"/><g><path fill="white" stroke="black" paint-order="fill stroke markers" d=" M 936.4228298524869 93.4059490235 L 1141.1330536550884 93.4059490235 L 1141.1330536550884 135.7141255705 L 936.4228298524869 135.7141255705 L 936.4228298524869 93.4059490235 Z" stroke-miterlimit="10" stroke-width="2.613632528" stroke-dasharray=""/></g><g><text fill="black" stroke="none" font-family="monospace" font-size="11pt" font-style="normal" font-weight="normal" text-decoration="normal" x="954.1465254329869" y="119.75588850049999" text-anchor="start" dominant-baseline="alphabetic" xml:space="preserve">minutes:NumberDisplay</text></g><path fill="none" stroke="none"/><g><path fill="white" stroke="black" paint-order="fill stroke markers" d=" M 1157.4682569550885 93.4059490235 L 1346.0582109822994 93.4059490235 L 1346.0582109822994 135.7141255705 L 1157.4682569550885 135.7141255705 L 1157.4682569550885 93.4059490235 Z" stroke-miterlimit="10" stroke-width="2.613632528" stroke-dasharray=""/></g><g><text fill="black" stroke="none" font-family="monospace" font-size="11pt" font-style="normal" font-weight="normal" text-decoration="normal" x="1175.1919525355884" y="119.75588850049999" text-anchor="start" dominant-baseline="alphabetic" xml:space="preserve">hours:NumberDisplay</text></g></g><g><path fill="white" stroke="black" paint-order="fill stroke markers" d=" M 198.76649237876302 187.98677613049998 L 215.101695678763 187.98677613049998 L 215.101695678763 1004.7469411305003 L 198.76649237876302 1004.7469411305003 Z" stroke-miterlimit="10" stroke-width="1.3612669416666667" stroke-dasharray=""/><path fill="white" stroke="black" paint-order="fill stroke markers" d=" M 419.86493556600254 232.09182504049997 L 436.20013886600253 232.09182504049997 L 436.20013886600253 1004.7469411305003 L 419.86493556600254 1004.7469411305003 Z" stroke-miterlimit="10" stroke-width="1.3612669416666667"/><path fill="white" stroke="black" paint-order="fill stroke markers" d=" M 584.4894184547369 276.1968739505 L 600.824621754737 276.1968739505 L 600.824621754737 963.9089328805003 L 584.4894184547369 963.9089328805003 Z" stroke-miterlimit="10" stroke-width="1.3612669416666667"/><path fill="white" stroke="black" paint-order="fill stroke markers" d=" M 809.5649130011861 320.3019228605 L 825.9001163011862 320.3019228605 L 825.9001163011862 364.4069717705 L 809.5649130011861 364.4069717705 Z" stroke-miterlimit="10" stroke-width="1.3612669416666667"/><path fill="white" stroke="black" paint-order="fill stroke markers" d=" M 809.5649130011861 408.5120206805 L 825.9001163011862 408.5120206805 L 825.9001163011862 452.61706959049997 L 809.5649130011861 452.61706959049997 Z" stroke-miterlimit="10" stroke-width="1.3612669416666667"/><path fill="white" stroke="black" paint-order="fill stroke markers" d=" M 1030.6103401037876 540.8271674105 L 1046.9455434037877 540.8271674105 L 1046.9455434037877 584.9322163205001 L 1030.6103401037876 584.9322163205001 Z" stroke-miterlimit="10" stroke-width="1.3612669416666667"/><path fill="white" stroke="black" paint-order="fill stroke markers" d=" M 1030.6103401037876 629.0372652305001 L 1046.9455434037877 629.0372652305001 L 1046.9455434037877 673.1423141405002 L 1030.6103401037876 673.1423141405002 Z" stroke-miterlimit="10" stroke-width="1.3612669416666667"/><path fill="white" stroke="black" paint-order="fill stroke markers" d=" M 1243.5956323186938 761.3524119605001 L 1259.930835618694 761.3524119605001 L 1259.930835618694 805.4574608705002 L 1243.5956323186938 805.4574608705002 Z" stroke-miterlimit="10" stroke-width="1.3612669416666667"/><path fill="white" stroke="black" paint-order="fill stroke markers" d=" M 592.657020104737 919.8038839705002 L 608.992223404737 919.8038839705002 L 608.992223404737 963.9089328805003 L 592.657020104737 963.9089328805003 Z" stroke-miterlimit="10" stroke-width="1.3612669416666667"/><g><g/><g/><path fill="none" stroke="black" paint-order="fill stroke markers" d=" M 8.16760165 8.16760165 L 1372.1945362622992 8.16760165 L 1372.1945362622992 1039.0508680605003 L 8.16760165 1039.0508680605003 L 8.16760165 8.16760165 Z" stroke-miterlimit="10" stroke-width="1.3612669416666667"/><path fill="white" stroke="black" paint-order="fill stroke markers" d=" M 8.16760165 8.16760165 L 8.16760165 31.036886269999997 L 124.45289167285156 31.036886269999997 L 135.88753398285155 19.60224396 L 135.88753398285155 8.16760165 Z" stroke-miterlimit="10" stroke-width="1.3612669416666667"/><text fill="black" stroke="none" font-family="sans-serif" font-size="11pt" font-style="normal" font-weight="bold" text-decoration="normal" x="24.502804949999998" y="23.686044784999996" text-anchor="start" dominant-baseline="alphabetic" xml:space="preserve">sd</text><text fill="black" stroke="none" font-family="sans-serif" font-size="11pt" font-style="normal" font-weight="normal" text-decoration="normal" x="45.68391151738281" y="23.686044784999996" text-anchor="start" dominant-baseline="alphabetic" xml:space="preserve">Time Tick</text></g><g><rect fill="white" stroke="none" x="69.9426703920573" y="168.38453217049997" width="109.30534830003906" height="19.602243960000003"/><text fill="black" stroke="none" font-family="monospace" font-size="11pt" font-style="normal" font-weight="normal" text-decoration="normal" x="72.2044677720573" y="181.95531645049996" text-anchor="start" dominant-baseline="alphabetic" xml:space="preserve">clicks button</text></g><g><path fill="none" stroke="black" paint-order="fill stroke markers" d=" M 50.42419670539063 187.98677613049998 L 185.31717499509637 187.98677613049998" stroke-miterlimit="10" stroke-width="1.3612669416666667"/><g transform="translate(198.76649237876302,187.98677613049998) translate(-198.76649237876302,-187.98677613049998)"><path fill="black" stroke="none" paint-order="stroke fill markers" d=" M 185.15382296209634 181.18044142216664 L 198.76649237876302 187.98677613049998 L 185.15382296209634 194.79311083883331 Z"/></g></g><g><rect fill="white" stroke="none" x="234.62016936542963" y="212.48958108049996" width="165.72629251390626" height="19.602243960000003"/><text fill="black" stroke="none" font-family="monospace" font-size="11pt" font-style="normal" font-weight="normal" text-decoration="normal" x="236.88196674542962" y="226.06036536049996" text-anchor="start" dominant-baseline="alphabetic" xml:space="preserve">click Event Listener</text></g><g><path fill="none" stroke="black" paint-order="fill stroke markers" d=" M 215.101695678763 232.09182504049997 L 406.4156181823359 232.09182504049997" stroke-miterlimit="10" stroke-width="1.3612669416666667"/><g transform="translate(419.86493556600254,232.09182504049997) translate(-419.86493556600254,-232.09182504049997)"><path fill="black" stroke="none" paint-order="stroke fill markers" d=" M 406.25226614933587 225.28549033216663 L 419.86493556600254 232.09182504049997 L 406.25226614933587 238.8981597488333 Z"/></g></g><g><rect fill="white" stroke="none" x="467.7823068418931" y="256.5946299905" width="85.12494363695312" height="19.602243960000003"/><text fill="black" stroke="none" font-family="monospace" font-size="11pt" font-style="normal" font-weight="normal" text-decoration="normal" x="470.0441042218931" y="270.1654142705" text-anchor="start" dominant-baseline="alphabetic" xml:space="preserve">timeTick()</text></g><g><path fill="none" stroke="black" paint-order="fill stroke markers" d=" M 436.20013886600253 276.1968739505 L 571.0401010710702 276.1968739505" stroke-miterlimit="10" stroke-width="1.3612669416666667"/><g transform="translate(584.4894184547369,276.1968739505) translate(-584.4894184547369,-276.1968739505)"><path fill="black" stroke="none" paint-order="stroke fill markers" d=" M 570.8767490380702 269.39053924216665 L 584.4894184547369 276.1968739505 L 570.8767490380702 283.00320865883333 Z"/></g></g><g><rect fill="white" stroke="none" x="658.6022281156374" y="300.6996789005" width="93.18507852464843" height="19.602243960000003"/><text fill="black" stroke="none" font-family="monospace" font-size="11pt" font-style="normal" font-weight="normal" text-decoration="normal" x="660.8640254956374" y="314.2704631805" text-anchor="start" dominant-baseline="alphabetic" xml:space="preserve">increment()</text></g><g><path fill="none" stroke="black" paint-order="fill stroke markers" d=" M 600.824621754737 320.3019228605 L 796.1155956175195 320.3019228605" stroke-miterlimit="10" stroke-width="1.3612669416666667"/><g transform="translate(809.5649130011861,320.3019228605) translate(-809.5649130011861,-320.3019228605)"><path fill="black" stroke="none" paint-order="stroke fill markers" d=" M 795.9522435845195 313.49558815216665 L 809.5649130011861 320.3019228605 L 795.9522435845195 327.1082575688333 Z"/></g></g><g><rect fill="white" stroke="none" x="686.812700222571" y="344.8047278105" width="36.76413431078125" height="19.602243960000003"/><text fill="black" stroke="none" font-family="monospace" font-size="11pt" font-style="normal" font-weight="normal" text-decoration="normal" x="689.074497602571" y="358.3755120905" text-anchor="start" dominant-baseline="alphabetic" xml:space="preserve">void</text></g><g><path fill="none" stroke="black" paint-order="fill stroke markers" d=" M 809.5649130011861 364.4069717705 L 614.2739391384036 364.4069717705" stroke-miterlimit="10" stroke-width="1.3612669416666667" stroke-dasharray="6.53408132"/><g transform="translate(600.824621754737,364.4069717705) translate(-600.824621754737,-364.4069717705)"><path fill="black" stroke="none" paint-order="stroke fill markers" d=" M 614.4372911714037 357.60063706216664 L 600.824621754737 364.4069717705 L 614.4372911714037 371.2133064788333 Z"/></g></g><g><rect fill="white" stroke="none" x="662.6322955594851" y="388.90977672049996" width="85.12494363695312" height="19.602243960000003"/><text fill="black" stroke="none" font-family="monospace" font-size="11pt" font-style="normal" font-weight="normal" text-decoration="normal" x="664.8940929394851" y="402.48056100049996" text-anchor="start" dominant-baseline="alphabetic" xml:space="preserve">getValue()</text></g><g><path fill="none" stroke="black" paint-order="fill stroke markers" d=" M 600.824621754737 408.5120206805 L 796.1155956175195 408.5120206805" stroke-miterlimit="10" stroke-width="1.3612669416666667"/><g transform="translate(809.5649130011861,408.5120206805) translate(-809.5649130011861,-408.5120206805)"><path fill="black" stroke="none" paint-order="stroke fill markers" d=" M 795.9522435845195 401.70568597216663 L 809.5649130011861 408.5120206805 L 795.9522435845195 415.3183553888333 Z"/></g></g><g><rect fill="white" stroke="none" x="682.7826327787234" y="433.0148256305" width="44.824269198476564" height="19.602243960000003"/><text fill="black" stroke="none" font-family="monospace" font-size="11pt" font-style="normal" font-weight="normal" text-decoration="normal" x="685.0444301587233" y="446.5856099105" text-anchor="start" dominant-baseline="alphabetic" xml:space="preserve">value</text></g><g><path fill="none" stroke="black" paint-order="fill stroke markers" d=" M 809.5649130011861 452.61706959049997 L 614.2739391384036 452.61706959049997" stroke-miterlimit="10" stroke-width="1.3612669416666667" stroke-dasharray="6.53408132"/><g transform="translate(600.824621754737,452.61706959049997) translate(-600.824621754737,-452.61706959049997)"><path fill="black" stroke="none" paint-order="stroke fill markers" d=" M 614.4372911714037 445.8107348821666 L 600.824621754737 452.61706959049997 L 614.4372911714037 459.4234042988333 Z"/></g></g><g><rect fill="white" stroke="none" x="769.1249416669382" y="521.2249234505" width="93.18507852464843" height="19.602243960000003"/><text fill="black" stroke="none" font-family="monospace" font-size="11pt" font-style="normal" font-weight="normal" text-decoration="normal" x="771.3867390469381" y="534.7957077305" text-anchor="start" dominant-baseline="alphabetic" xml:space="preserve">increment()</text></g><g><path fill="none" stroke="black" paint-order="fill stroke markers" d=" M 600.824621754737 540.8271674105 L 1017.161022720121 540.8271674105" stroke-miterlimit="10" stroke-width="1.3612669416666667"/><g transform="translate(1030.6103401037876,540.8271674105) translate(-1030.6103401037876,-540.8271674105)"><path fill="black" stroke="none" paint-order="stroke fill markers" d=" M 1016.997670687121 534.0208327021667 L 1030.6103401037876 540.8271674105 L 1016.997670687121 547.6335021188333 Z"/></g></g><g><rect fill="white" stroke="none" x="797.3354137738718" y="565.3299723605" width="36.76413431078125" height="19.602243960000003"/><text fill="black" stroke="none" font-family="monospace" font-size="11pt" font-style="normal" font-weight="normal" text-decoration="normal" x="799.5972111538717" y="578.9007566405" text-anchor="start" dominant-baseline="alphabetic" xml:space="preserve">void</text></g><g><path fill="none" stroke="black" paint-order="fill stroke markers" d=" M 1030.6103401037876 584.9322163205001 L 614.2739391384036 584.9322163205001" stroke-miterlimit="10" stroke-width="1.3612669416666667" stroke-dasharray="6.53408132"/><g transform="translate(600.824621754737,584.9322163205001) translate(-600.824621754737,-584.9322163205001)"><path fill="black" stroke="none" paint-order="stroke fill markers" d=" M 614.4372911714037 578.1258816121667 L 600.824621754737 584.9322163205001 L 614.4372911714037 591.7385510288334 Z"/></g></g><g><rect fill="white" stroke="none" x="773.1550091107858" y="609.4350212705001" width="85.12494363695312" height="19.602243960000003"/><text fill="black" stroke="none" font-family="monospace" font-size="11pt" font-style="normal" font-weight="normal" text-decoration="normal" x="775.4168064907858" y="623.0058055505001" text-anchor="start" dominant-baseline="alphabetic" xml:space="preserve">getValue()</text></g><g><path fill="none" stroke="black" paint-order="fill stroke markers" d=" M 600.824621754737 629.0372652305001 L 1017.161022720121 629.0372652305001" stroke-miterlimit="10" stroke-width="1.3612669416666667"/><g transform="translate(1030.6103401037876,629.0372652305001) translate(-1030.6103401037876,-629.0372652305001)"><path fill="black" stroke="none" paint-order="stroke fill markers" d=" M 1016.997670687121 622.2309305221668 L 1030.6103401037876 629.0372652305001 L 1016.997670687121 635.8435999388334 Z"/></g></g><g><rect fill="white" stroke="none" x="793.3053463300241" y="653.5400701805002" width="44.824269198476564" height="19.602243960000003"/><text fill="black" stroke="none" font-family="monospace" font-size="11pt" font-style="normal" font-weight="normal" text-decoration="normal" x="795.5671437100241" y="667.1108544605001" text-anchor="start" dominant-baseline="alphabetic" xml:space="preserve">value</text></g><g><path fill="none" stroke="black" paint-order="fill stroke markers" d=" M 1030.6103401037876 673.1423141405002 L 614.2739391384036 673.1423141405002" stroke-miterlimit="10" stroke-width="1.3612669416666667" stroke-dasharray="6.53408132"/><g transform="translate(600.824621754737,673.1423141405002) translate(-600.824621754737,-673.1423141405002)"><path fill="black" stroke="none" paint-order="stroke fill markers" d=" M 614.4372911714037 666.3359794321668 L 600.824621754737 673.1423141405002 L 614.4372911714037 679.9486488488335 Z"/></g></g><g><rect fill="white" stroke="none" x="875.6175877743913" y="741.7501680005001" width="93.18507852464843" height="19.602243960000003"/><text fill="black" stroke="none" font-family="monospace" font-size="11pt" font-style="normal" font-weight="normal" text-decoration="normal" x="877.8793851543912" y="755.3209522805001" text-anchor="start" dominant-baseline="alphabetic" xml:space="preserve">increment()</text></g><g><path fill="none" stroke="black" paint-order="fill stroke markers" d=" M 600.824621754737 761.3524119605001 L 1230.146314935027 761.3524119605001" stroke-miterlimit="10" stroke-width="1.3612669416666667"/><g transform="translate(1243.5956323186938,761.3524119605001) translate(-1243.5956323186938,-761.3524119605001)"><path fill="black" stroke="none" paint-order="stroke fill markers" d=" M 1229.982962902027 754.5460772521668 L 1243.5956323186938 761.3524119605001 L 1229.982962902027 768.1587466688335 Z"/></g></g><g><rect fill="white" stroke="none" x="903.8280598813249" y="785.8552169105002" width="36.76413431078125" height="19.602243960000003"/><text fill="black" stroke="none" font-family="monospace" font-size="11pt" font-style="normal" font-weight="normal" text-decoration="normal" x="906.0898572613248" y="799.4260011905002" text-anchor="start" dominant-baseline="alphabetic" xml:space="preserve">void</text></g><g><path fill="none" stroke="black" paint-order="fill stroke markers" d=" M 1243.5956323186938 805.4574608705002 L 614.2739391384036 805.4574608705002" stroke-miterlimit="10" stroke-width="1.3612669416666667" stroke-dasharray="6.53408132"/><g transform="translate(600.824621754737,805.4574608705002) translate(-600.824621754737,-805.4574608705002)"><path fill="black" stroke="none" paint-order="stroke fill markers" d=" M 614.4372911714037 798.6511261621669 L 600.824621754737 805.4574608705002 L 614.4372911714037 812.2637955788335 Z"/></g></g><g><rect fill="white" stroke="none" x="628.5106970914037" y="878.9658757205002" width="125.42561807542968" height="19.602243960000003"/><text fill="black" stroke="none" font-family="monospace" font-size="11pt" font-style="normal" font-weight="normal" text-decoration="normal" x="630.7724944714037" y="892.5366600005002" text-anchor="start" dominant-baseline="alphabetic" xml:space="preserve">updateDisplay()</text></g><g><path fill="none" stroke="black" paint-order="fill stroke markers" d=" M 600.824621754737 898.5681196805002 L 674.3330366047369 898.5681196805002 L 674.3330366047369 919.8038839705002 L 622.4415407884036 919.8038839705002" stroke-miterlimit="10" stroke-width="1.3612669416666667"/><g transform="translate(608.9922234047369,919.8038839705002) translate(-608.9922234047369,-919.8038839705002)"><path fill="black" stroke="none" paint-order="stroke fill markers" d=" M 622.6048928214036 912.9975492621669 L 608.9922234047369 919.8038839705002 L 622.6048928214036 926.6102186788336 Z"/></g></g><g><rect fill="white" stroke="none" x="496.04651232997907" y="944.3066889205003" width="36.76413431078125" height="19.602243960000003"/><text fill="black" stroke="none" font-family="monospace" font-size="11pt" font-style="normal" font-weight="normal" text-decoration="normal" x="498.3083097099791" y="957.8774732005003" text-anchor="start" dominant-baseline="alphabetic" xml:space="preserve">void</text></g><g><path fill="none" stroke="black" paint-order="fill stroke markers" d=" M 592.657020104737 963.9089328805003 L 449.6494562496692 963.9089328805003" stroke-miterlimit="10" stroke-width="1.3612669416666667" stroke-dasharray="6.53408132"/><g transform="translate(436.20013886600253,963.9089328805003) translate(-436.20013886600253,-963.9089328805003)"><path fill="black" stroke="none" paint-order="stroke fill markers" d=" M 449.8128082826692 957.102598172167 L 436.20013886600253 963.9089328805003 L 449.8128082826692 970.7152675888336 Z"/></g></g><g><g/><path fill="none" stroke="black" paint-order="fill stroke markers" d=" M 510.98100360473694 477.11987454049995 L 1325.2716488186938 477.11987454049995 L 1325.2716488186938 854.4630707705003 L 510.98100360473694 854.4630707705003 L 510.98100360473694 477.11987454049995 Z" stroke-miterlimit="10" stroke-width="2.3336004714285714"/><path fill="white" stroke="black" paint-order="fill stroke markers" d=" M 510.98100360473694 477.11987454049995 L 510.98100360473694 496.72211850049996 L 562.9990206783698 496.72211850049996 L 572.8001426583697 486.92099652049995 L 572.8001426583697 477.11987454049995 L 510.98100360473694 477.11987454049995" stroke-miterlimit="10" stroke-width="2.3336004714285714"/><text fill="black" stroke="none" font-family="monospace" font-size="8.8pt" font-style="normal" font-weight="bold" text-decoration="normal" x="527.316206904737" y="490.1880371805" text-anchor="start" dominant-baseline="alphabetic" xml:space="preserve">opt</text><g><rect fill="white" stroke="none" x="586.8735485783698" y="479.33140975649997" width="159.3044785490625" height="15.681795168000004"/></g><text fill="black" stroke="none" font-family="monospace" font-size="8.8pt" font-style="normal" font-weight="bold" text-decoration="normal" x="589.1353459583697" y="490.1880371805" text-anchor="start" dominant-baseline="alphabetic" xml:space="preserve">[value of seconds === 0]</text></g><g><g/><path fill="none" stroke="black" paint-order="fill stroke markers" d=" M 527.3162069047369 697.6451190905001 L 1308.9364455186937 697.6451190905001 L 1308.9364455186937 829.9602658205002 L 527.3162069047369 829.9602658205002 L 527.3162069047369 697.6451190905001 Z" stroke-miterlimit="10" stroke-width="2.3336004714285714"/><path fill="white" stroke="black" paint-order="fill stroke markers" d=" M 527.3162069047369 697.6451190905001 L 527.3162069047369 717.2473630505001 L 579.3342239783697 717.2473630505001 L 589.1353459583696 707.4462410705 L 589.1353459583696 697.6451190905001 L 527.3162069047369 697.6451190905001" stroke-miterlimit="10" stroke-width="2.3336004714285714"/><text fill="black" stroke="none" font-family="monospace" font-size="8.8pt" font-style="normal" font-weight="bold" text-decoration="normal" x="543.6514102047369" y="710.7132817305001" text-anchor="start" dominant-baseline="alphabetic" xml:space="preserve">opt</text><g><rect fill="white" stroke="none" x="603.2087518783696" y="699.8566543065001" width="159.3044785490625" height="15.681795168000004"/></g><text fill="black" stroke="none" font-family="monospace" font-size="8.8pt" font-style="normal" font-weight="bold" text-decoration="normal" x="605.4705492583696" y="710.7132817305001" text-anchor="start" dominant-baseline="alphabetic" xml:space="preserve">[value of minutes === 0]</text></g></g><g/><g/></g></svg>